<?xml version="1.0" standalone="no"?>
<!DOCTYPE svg PUBLIC "-//W3C//DTD SVG 20010904//EN"
 "http://www.w3.org/TR/2001/REC-SVG-20010904/DTD/svg10.dtd">
<svg version="1.0" xmlns="http://www.w3.org/2000/svg"
 width="512.000000pt" height="512.000000pt" viewBox="0 0 512.000000 512.000000"
 preserveAspectRatio="xMidYMid meet">
<metadata>
Created by potrace 1.11, written by Peter Selinger 2001-2013
</metadata>
<g transform="translate(0.000000,512.000000) scale(0.100000,-0.100000)"
fill="#000000" stroke="none">
<path d="M1420 4149 c-53 -16 -100 -59 -165 -150 -202 -283 -327 -390 -635
-544 -219 -109 -267 -150 -290 -247 -14 -61 -12 -106 8 -161 51 -143 191 -219
335 -181 77 20 218 93 348 179 63 42 117 79 120 81 4 2 7 -353 7 -789 1 -435
3 -801 5 -812 34 -152 104 -236 225 -271 52 -16 123 -19 171 -10 83 18 165 89
208 182 46 102 51 150 52 594 0 228 1 451 1 495 l1 80 19 -36 c27 -52 82 -96
142 -114 69 -20 106 -19 172 5 88 33 149 116 207 284 43 124 125 193 242 202
116 9 213 -39 263 -129 24 -44 28 -63 28 -122 -2 -150 -102 -298 -294 -439
-215 -157 -644 -571 -717 -691 -45 -74 -83 -188 -83 -251 0 -58 33 -141 73
-185 41 -45 119 -86 183 -95 66 -9 1203 -8 1245 1 94 21 163 80 193 169 l12
36 24 -58 c44 -109 145 -231 250 -302 139 -94 275 -131 460 -125 121 4 130 5
219 31 311 90 518 362 507 668 -5 158 -62 283 -181 395 -30 29 -55 58 -55 65
0 7 9 21 21 32 27 24 83 126 104 189 22 66 27 195 11 270 -35 159 -132 282
-283 359 -120 60 -229 81 -392 73 -211 -10 -364 -71 -491 -197 -85 -84 -123
-148 -144 -240 -30 -126 17 -234 124 -282 55 -25 146 -21 207 11 37 18 48 33
93 123 28 57 62 115 74 130 30 37 88 55 160 52 66 -4 92 -18 132 -69 22 -30
27 -45 26 -94 0 -68 -18 -108 -64 -143 -35 -26 -65 -34 -163 -43 -165 -14
-170 -15 -204 -43 -50 -40 -72 -74 -86 -128 -24 -95 19 -195 102 -235 45 -22
58 -24 190 -21 166 3 204 -8 258 -71 39 -46 53 -95 49 -183 -6 -161 -146 -267
-306 -233 -64 14 -120 71 -165 169 -19 41 -45 98 -59 125 -39 83 -89 117 -179
121 -119 6 -216 -65 -250 -184 l-7 -24 -15 29 c-31 61 -84 99 -173 123 -32 9
-146 13 -382 14 -185 1 -339 4 -342 7 -8 8 112 117 314 283 91 76 192 160 225
189 158 138 267 294 321 461 23 69 27 99 28 206 0 69 -3 138 -6 154 -63 267
-240 454 -501 530 -123 36 -329 51 -457 34 -327 -44 -572 -233 -661 -508 l-18
-55 0 155 c-2 499 -8 899 -15 924 -24 98 -79 171 -160 216 -46 25 -161 36
-216 19z"/>
</g>
</svg>
